<svg xmlns="http://www.w3.org/2000/svg" xmlns:xlink="http://www.w3.org/1999/xlink" width="940" zoomAndPan="magnify" viewBox="0 0 705 591.000005" height="788" preserveAspectRatio="xMidYMid meet" version="1.0"><defs><clipPath id="e1bf25f8de"><path d="M 0.59375 0 L 704.402344 0 L 704.402344 590 L 0.59375 590 Z M 0.59375 0 " clip-rule="nonzero"/></clipPath><clipPath id="e1f36e0492"><path d="M 46.273438 210.984375 L 658.878906 210.984375 L 658.878906 378.414062 L 46.273438 378.414062 Z M 46.273438 210.984375 " clip-rule="nonzero"/></clipPath></defs><g clip-path="url(#e1bf25f8de)"><path fill="#ffffff" d="M 0.59375 0 L 704.40625 0 L 704.40625 590 L 0.59375 590 Z M 0.59375 0 " fill-opacity="1" fill-rule="nonzero"/><path fill="#5170ff" d="M 0.59375 0 L 704.40625 0 L 704.40625 590 L 0.59375 590 Z M 0.59375 0 " fill-opacity="1" fill-rule="nonzero"/></g><g clip-path="url(#e1f36e0492)"><path fill="#ffffff" d="M 46.273438 210.984375 L 658.882812 210.984375 L 658.882812 378.414062 L 46.273438 378.414062 Z M 46.273438 210.984375 " fill-opacity="1" fill-rule="nonzero"/><path fill="#5170ff" d="M 46.273438 210.984375 L 658.882812 210.984375 L 658.882812 378.414062 L 46.273438 378.414062 Z M 46.273438 210.984375 " fill-opacity="1" fill-rule="nonzero"/></g><path fill="#70ff51" d="M 159.972656 282.765625 L 159.972656 302.40625 C 157.632812 313.15625 152.503906 321.296875 144.585938 326.820312 C 136.671875 332.339844 127.839844 335.097656 118.089844 335.097656 C 105.851562 335.097656 95.425781 330.527344 86.8125 321.382812 C 78.203125 312.238281 73.902344 301.195312 73.902344 288.25 C 73.902344 275.085938 78.113281 263.96875 86.542969 254.902344 C 94.96875 245.832031 105.484375 241.292969 118.089844 241.292969 C 132.820312 241.292969 144.472656 246.453125 153.050781 256.765625 L 139.53125 271.578125 C 134.695312 263.824219 127.949219 259.949219 119.304688 259.949219 C 112.929688 259.949219 107.484375 262.710938 102.972656 268.234375 C 98.464844 273.753906 96.210938 280.425781 96.210938 288.25 C 96.210938 295.933594 98.464844 302.496094 102.972656 307.941406 C 107.484375 313.390625 112.929688 316.113281 119.304688 316.113281 C 124.574219 316.113281 129.171875 314.523438 133.09375 311.347656 C 137.019531 308.164062 138.984375 303.9375 138.984375 298.667969 L 118.089844 298.667969 L 118.089844 282.765625 Z M 159.972656 282.765625 " fill-opacity="1" fill-rule="nonzero"/><path fill="#70ff51" d="M 174.433594 326.757812 C 168.167969 321.199219 165.035156 314.066406 165.035156 305.363281 C 165.035156 296.660156 168.292969 289.511719 174.8125 283.921875 C 181.332031 278.328125 189.394531 275.527344 198.996094 275.527344 C 208.453125 275.527344 216.421875 278.34375 222.90625 283.976562 C 229.390625 289.601562 232.636719 296.730469 232.636719 305.363281 C 232.636719 313.996094 229.46875 321.109375 223.128906 326.703125 C 216.792969 332.300781 208.746094 335.097656 198.996094 335.097656 C 188.886719 335.097656 180.699219 332.316406 174.433594 326.757812 Z M 189.488281 295.820312 C 186.960938 298.304688 185.699219 301.488281 185.699219 305.363281 C 185.699219 309.238281 186.910156 312.402344 189.328125 314.859375 C 191.746094 317.308594 194.933594 318.53125 198.890625 318.53125 C 202.699219 318.53125 205.832031 317.292969 208.289062 314.804688 C 210.742188 312.3125 211.96875 309.167969 211.96875 305.363281 C 211.96875 301.488281 210.703125 298.304688 208.171875 295.820312 C 205.644531 293.335938 202.550781 292.09375 198.890625 292.09375 C 195.15625 292.09375 192.023438 293.335938 189.488281 295.820312 Z M 189.488281 295.820312 " fill-opacity="1" fill-rule="nonzero"/><path fill="#70ff51" d="M 247.097656 326.757812 C 240.832031 321.199219 237.699219 314.066406 237.699219 305.363281 C 237.699219 296.660156 240.957031 289.511719 247.472656 283.921875 C 253.996094 278.328125 262.058594 275.527344 271.660156 275.527344 C 281.117188 275.527344 289.085938 278.34375 295.570312 283.976562 C 302.054688 289.601562 305.300781 296.730469 305.300781 305.363281 C 305.300781 313.996094 302.132812 321.109375 295.792969 326.703125 C 289.453125 332.300781 281.410156 335.097656 271.660156 335.097656 C 261.550781 335.097656 253.363281 332.316406 247.097656 326.757812 Z M 262.152344 295.820312 C 259.625 298.304688 258.363281 301.488281 258.363281 305.363281 C 258.363281 309.238281 259.570312 312.402344 261.992188 314.859375 C 264.410156 317.308594 267.597656 318.53125 271.554688 318.53125 C 275.363281 318.53125 278.496094 317.292969 280.953125 314.804688 C 283.40625 312.3125 284.632812 309.167969 284.632812 305.363281 C 284.632812 301.488281 283.367188 298.304688 280.835938 295.820312 C 278.308594 293.335938 275.214844 292.09375 271.554688 292.09375 C 267.820312 292.09375 264.683594 293.335938 262.152344 295.820312 Z M 262.152344 295.820312 " fill-opacity="1" fill-rule="nonzero"/><path fill="#70ff51" d="M 318.269531 326.488281 C 312.996094 320.742188 310.363281 313.699219 310.363281 305.363281 C 310.363281 297.027344 312.996094 289.96875 318.269531 284.191406 C 323.550781 278.417969 330.257812 275.527344 338.390625 275.527344 C 345.863281 275.527344 352.019531 277.867188 356.859375 282.542969 L 356.859375 239.101562 L 376.320312 239.101562 L 376.320312 333.449219 L 357.082031 333.449219 L 357.082031 327.089844 L 356.859375 327.089844 C 352.019531 332.425781 345.863281 335.097656 338.390625 335.097656 C 330.257812 335.097656 323.550781 332.226562 318.269531 326.488281 Z M 334.816406 295.820312 C 332.289062 298.304688 331.027344 301.488281 331.027344 305.363281 C 331.027344 309.238281 332.234375 312.402344 334.65625 314.859375 C 337.074219 317.308594 340.261719 318.53125 344.21875 318.53125 C 348.027344 318.53125 351.160156 317.292969 353.617188 314.804688 C 356.070312 312.3125 357.296875 309.167969 357.296875 305.363281 C 357.296875 301.488281 356.03125 298.304688 353.5 295.820312 C 350.972656 293.335938 347.878906 292.09375 344.21875 292.09375 C 340.480469 292.09375 337.347656 293.335938 334.816406 295.820312 Z M 334.816406 295.820312 " fill-opacity="1" fill-rule="nonzero"/><path fill="#ff5170" d="M 378.519531 261.039062 L 378.519531 242.941406 L 442.28125 242.941406 L 442.28125 261.039062 L 420.734375 261.039062 L 420.734375 333.449219 L 400.066406 333.449219 L 400.066406 261.039062 Z M 378.519531 261.039062 " fill-opacity="1" fill-rule="nonzero"/><path fill="#ff5170" d="M 442.609375 333.449219 L 442.609375 277.167969 L 462.066406 277.167969 L 462.066406 285.285156 L 462.289062 285.285156 C 462.433594 284.992188 462.671875 284.628906 463 284.191406 C 463.328125 283.757812 464.042969 282.988281 465.144531 281.890625 C 466.246094 280.792969 467.417969 279.800781 468.664062 278.921875 C 469.910156 278.046875 471.519531 277.261719 473.496094 276.566406 C 475.476562 275.875 477.492188 275.527344 479.546875 275.527344 C 481.667969 275.527344 483.757812 275.820312 485.8125 276.40625 C 487.863281 276.992188 489.367188 277.578125 490.320312 278.160156 L 491.855469 279.03125 L 483.722656 295.488281 C 481.300781 293.441406 477.933594 292.414062 473.613281 292.414062 C 471.265625 292.414062 469.25 292.929688 467.5625 293.957031 C 465.878906 294.976562 464.6875 296.222656 463.988281 297.683594 C 463.292969 299.148438 462.796875 300.394531 462.507812 301.417969 C 462.210938 302.441406 462.066406 303.246094 462.066406 303.828125 L 462.066406 333.449219 Z M 442.609375 333.449219 " fill-opacity="1" fill-rule="nonzero"/><path fill="#ff5170" d="M 500.320312 326.488281 C 495.042969 320.742188 492.410156 313.699219 492.410156 305.363281 C 492.410156 297.027344 495.042969 289.96875 500.320312 284.191406 C 505.597656 278.417969 512.304688 275.527344 520.4375 275.527344 C 527.914062 275.527344 534.070312 277.867188 538.90625 282.542969 L 538.90625 277.167969 L 558.371094 277.167969 L 558.371094 333.449219 L 539.128906 333.449219 L 539.128906 327.089844 L 538.90625 327.089844 C 534.070312 332.425781 527.914062 335.097656 520.4375 335.097656 C 512.304688 335.097656 505.597656 332.226562 500.320312 326.488281 Z M 516.867188 295.820312 C 514.339844 298.304688 513.078125 301.488281 513.078125 305.363281 C 513.078125 309.238281 514.285156 312.402344 516.703125 314.859375 C 519.121094 317.308594 522.308594 318.53125 526.265625 318.53125 C 530.078125 318.53125 533.210938 317.292969 535.664062 314.804688 C 538.117188 312.3125 539.347656 309.167969 539.347656 305.363281 C 539.347656 301.488281 538.082031 298.304688 535.546875 295.820312 C 533.019531 293.335938 529.929688 292.09375 526.265625 292.09375 C 522.53125 292.09375 519.398438 293.335938 516.867188 295.820312 Z M 516.867188 295.820312 " fill-opacity="1" fill-rule="nonzero"/><path fill="#ff5170" d="M 585.410156 277.167969 L 599.148438 307.78125 L 612.894531 277.167969 L 635.976562 277.167969 L 605.746094 333.449219 L 592.550781 333.449219 L 562.320312 277.167969 Z M 585.410156 277.167969 " fill-opacity="1" fill-rule="nonzero"/></svg>